<?xml version="1.0" encoding="UTF-8"?>
<svg id="Capa_1" xmlns="http://www.w3.org/2000/svg" version="1.1" viewBox="0 0 1024 1024">
  <!-- Generator: Adobe Illustrator 29.8.1, SVG Export Plug-In . SVG Version: 2.1.1 Build 2)  -->
  <defs>
    <style>
      .st0 {
        fill: #fff;
      }
    </style>
  </defs>
  <path class="st0" d="M597.99,125l-26.02,37.47c-22.85,36.01-41.18,76.73-44.02,119.98-.38,5.77,1.11,12.11-.96,17.53,54.67,6.76,109.49-13.39,150.01-49.48,2.43-2.16,14.89-15.91,16.45-15.51,21.42,27.82,43.21,56.7,73.23,75.81l26.3,12.18c-44.51,9.4-79.4,45.95-94.01,88.01-33.81-29.86-73.27-53.78-117.8-63.69-17.7-3.94-35.13-5.18-53.18-6.31,2.44,57.57,15.49,111.11,55.48,154.02,2.3,2.47,12.35,10.37,12.32,12.29-18.64,41.62-32.02,85.25-42.32,129.68-25.32,109.27-34.42,221.72-42.49,333.51l-1.98,14.5c-1.27-18.48-2.42-37.03-4.02-55.49-8.32-96.39-17.1-193.11-38.48-287.52-10.51-46.39-23.87-92.49-44.23-135.5,48.86-40.34,65.91-104.13,67.73-165.49-54.62.19-105.49,19.48-148.9,51.61-6.56,4.85-13.49,12.17-19.59,16.41-.85.59-.99,1.39-2.5.98-14.58-41.63-48.52-76.69-92.01-87.49,29.2-10.2,51.21-28.86,70.97-52.03,9.58-11.24,19.12-24.11,27.04-36.47,20.76,21.14,43.58,39.58,71.02,51.47,29.73,12.89,61.7,17.1,93.97,14.54,1.07-55.67-22.3-105.86-52.78-150.73l-17.22-24.27c50.67.32,79.94-45.24,89.01-90l9.81,30.67c13.76,33.32,40.98,60.01,79.17,59.33Z"/>
  <path class="st0" d="M897,395.01c.31,1.4-.21,1.64-.98,2.52-6.21,7.04-20.74,16.22-28.55,23.45-24.4,22.6-45.58,51.46-54.07,84.06,41.97,19.05,92.71,12.21,131.58-11.04,10.05,31.45,26.49,62.55,53.01,82.99-30.87-.52-58.36,11.92-78.51,35-2.32,2.66-3.72,6.18-5.42,8.39-.67.87-1.68.96-2.05.62-.34-.32-2.86-6.33-4.2-8.31-24.61-36.24-60.68-65.92-103.81-76.69-4.63,23.55-7.86,46.42-4.99,70.49,2.57,21.53,10.6,41.96,20.81,60.87-52.45,67.04-89.31,144.56-122.3,222.68l-38.52,98.96c7.53-35.92,16.1-71.68,22.68-107.81,14.83-81.44,24.09-167.06,13.23-249.54,41.74-21.97,69.83-60.17,84.08-104.63-46.37-11.07-95.91-8.5-137.99,14.99-2.59-33.69-18.24-64.42-47.57-81.9-.62-.37-3.25-.35-1.43-2.1.13-.12,1.86.88,3.18.77,11.93-1.06,22.42-2.98,33.49-7.59,19.25-8.01,35.57-21.73,52.74-33.16,23.96,39.92,60.24,72.39,107.57,79.98,1.42-11.47,4.36-22.93,4.99-34.51,2-36.36-9.1-71.74-20.98-105.49,35.79,9.21,66.74-14.1,80.01-46,1.64-.27.93,1.35.99,2.48.5,9.51-.26,18.07,1.28,27.74,3.69,23.28,18.32,45.87,41.72,52.78Z"/>
  <path class="st0" d="M253,358.01c-19.04,43.2-29.84,93.13-16.05,139.58,46.75-7.34,82.57-40.6,106.65-79.52,27.19,17.46,53.68,41.66,88.39,39.94l-14.52,9.97c-21.12,18.57-33.51,44.93-35.49,73.02-36.62-20.96-79.95-25.24-121.17-17.68-2.32.43-15.72,2.89-15.79,4.18,15.05,44.47,42.15,81.87,84.01,104.22-.41,8.29-2.39,16.55-3.03,24.8-4.97,63.97,1.53,132.43,11.16,195.83,6.71,44.19,17.15,87.66,24.82,131.66l-17.24-47.24c-36.38-95.04-77.33-190.07-140.33-270.69,24.58-39.39,25.45-86.78,15.58-131.07-46.8,11.27-84.01,45.53-109.5,85-16.4-29.46-51.45-45.01-84.5-44.01,26.83-20.41,44.06-51.13,54.01-82.99,11.47,5.77,22.82,11.6,35.23,15.27,29.89,8.82,67.2,8.92,95.63-4.73-12.85-44.47-43.63-76.15-78.95-103.94-1.65-1.3-6.85-3.02-4.33-4.65,1.11-.72,3.93-1.13,5.73-2.12,31.56-17.31,37.61-48.02,36.69-81.81l15.48,24.01c5.84,5.97,11.55,11.91,18.84,16.16,15.38,8.96,31.36,10.33,48.67,6.84Z"/>
</svg>
